<svg width="24" height="24" viewBox="0 0 24 24" fill="none" xmlns="http://www.w3.org/2000/svg">
<path d="M2 12C2 7.286 2 4.929 3.464 3.464C4.93 2 7.286 2 12 2C16.714 2 19.071 2 20.535 3.464C22 4.93 22 7.286 22 12C22 16.714 22 19.071 20.535 20.535C19.072 22 16.714 22 12 22C7.286 22 4.929 22 3.464 20.535C2 19.072 2 16.714 2 12Z" stroke="white" stroke-width="1.5"/>
<path d="M11.25 17.9992C11.25 18.1981 11.329 18.3889 11.4697 18.5295C11.6103 18.6702 11.8011 18.7492 12 18.7492C12.1989 18.7492 12.3897 18.6702 12.5303 18.5295C12.671 18.3889 12.75 18.1981 12.75 17.9992H11.25ZM18 7.99918L18.53 8.52918C18.6705 8.38855 18.7493 8.19793 18.7493 7.99918C18.7493 7.80043 18.6705 7.6098 18.53 7.46918L18 7.99918ZM17.03 5.96918C16.9613 5.89549 16.8785 5.83639 16.7865 5.7954C16.6945 5.7544 16.5952 5.73236 16.4945 5.73059C16.3938 5.72881 16.2938 5.74733 16.2004 5.78505C16.107 5.82278 16.0222 5.87892 15.951 5.95014C15.8797 6.02136 15.8236 6.10619 15.7859 6.19958C15.7482 6.29297 15.7296 6.393 15.7314 6.4937C15.7332 6.5944 15.7552 6.69372 15.7962 6.78571C15.8372 6.87771 15.8963 6.96051 15.97 7.02918L17.03 5.96918ZM15.97 8.96918C15.8963 9.03784 15.8372 9.12064 15.7962 9.21264C15.7552 9.30464 15.7332 9.40395 15.7314 9.50465C15.7296 9.60536 15.7482 9.70539 15.7859 9.79877C15.8236 9.89216 15.8797 9.977 15.951 10.0482C16.0222 10.1194 16.107 10.1756 16.2004 10.2133C16.2938 10.251 16.3938 10.2695 16.4945 10.2678C16.5952 10.266 16.6945 10.244 16.7865 10.203C16.8785 10.162 16.9613 10.1029 17.03 10.0292L15.97 8.96918ZM12.75 17.9992V11.9992H11.25V17.9992H12.75ZM16 8.74918H18V7.24918H16V8.74918ZM18.53 7.46918L17.03 5.96918L15.97 7.02918L17.47 8.52918L18.53 7.46918ZM17.47 7.46918L15.97 8.96918L17.03 10.0292L18.53 8.52918L17.47 7.46918ZM12.75 11.9992C12.75 11.1372 13.0924 10.3106 13.7019 9.70108C14.3114 9.09159 15.138 8.74918 16 8.74918V7.24918C14.7402 7.24918 13.532 7.74962 12.6412 8.64042C11.7504 9.53122 11.25 10.7394 11.25 11.9992H12.75Z" fill="white"/>
<path d="M11.2498 18.0008C11.2498 18.1997 11.3288 18.3905 11.4695 18.5312C11.6102 18.6718 11.8009 18.7508 11.9998 18.7508C12.1987 18.7508 12.3895 18.6718 12.5302 18.5312C12.6708 18.3905 12.7498 18.1997 12.7498 18.0008H11.2498ZM5.99983 8.00082L5.46983 7.47082C5.32938 7.61145 5.25049 7.80207 5.25049 8.00082C5.25049 8.19957 5.32938 8.3902 5.46983 8.53082L5.99983 8.00082ZM8.02983 7.03082C8.16231 6.88865 8.23443 6.7006 8.231 6.5063C8.22758 6.312 8.14886 6.12661 8.01145 5.9892C7.87404 5.85179 7.68865 5.77308 7.49435 5.76965C7.30005 5.76622 7.112 5.83834 6.96983 5.97082L8.02983 7.03082ZM6.96983 10.0308C7.03849 10.1045 7.12129 10.1636 7.21329 10.2046C7.30529 10.2456 7.4046 10.2676 7.50531 10.2694C7.60601 10.2712 7.70604 10.2527 7.79943 10.2149C7.89281 10.1772 7.97765 10.1211 8.04887 10.0499C8.12009 9.97864 8.17623 9.89381 8.21395 9.80042C8.25167 9.70703 8.2702 9.607 8.26842 9.5063C8.26664 9.4056 8.2446 9.30628 8.20361 9.21428C8.16262 9.12229 8.10351 9.03949 8.02983 8.97082L6.96983 10.0308ZM12.7498 18.0008V12.0008H11.2498V18.0008H12.7498ZM7.99983 7.25082H5.99983V8.75082H7.99983V7.25082ZM6.52983 8.53082L8.02983 7.03082L6.96983 5.97082L5.46983 7.47082L6.52983 8.53082ZM5.46983 8.53082L6.96983 10.0308L8.02983 8.97082L6.52983 7.47082L5.46983 8.53082ZM12.7498 12.0008C12.7498 10.741 12.2494 9.53286 11.3586 8.64207C10.4678 7.75127 9.25961 7.25082 7.99983 7.25082V8.75082C8.86178 8.75082 9.68843 9.09323 10.2979 9.70273C10.9074 10.3122 11.2498 11.1389 11.2498 12.0008H12.7498Z" fill="white"/>
</svg>
