<svg width="18" height="18" viewBox="0 0 18 18" fill="none" xmlns="http://www.w3.org/2000/svg">
<path fill-rule="evenodd" clip-rule="evenodd" d="M13.5 7.875C14.0967 7.875 14.669 8.11205 15.091 8.53401C15.5129 8.95597 15.75 9.52826 15.75 10.125V14.625C15.75 15.2217 15.5129 15.794 15.091 16.216C14.669 16.6379 14.0967 16.875 13.5 16.875H4.5C3.90326 16.875 3.33097 16.6379 2.90901 16.216C2.48705 15.794 2.25 15.2217 2.25 14.625V10.125C2.25 9.52826 2.48705 8.95597 2.90901 8.53401C3.33097 8.11205 3.90326 7.875 4.5 7.875V5.625C4.5 4.43153 4.97411 3.28693 5.81802 2.44302C6.66193 1.59911 7.80653 1.125 9 1.125C10.1935 1.125 11.3381 1.59911 12.182 2.44302C13.0259 3.28693 13.5 4.43153 13.5 5.625V7.875ZM9 2.625C9.79565 2.625 10.5587 2.94107 11.1213 3.50368C11.6839 4.06629 12 4.82935 12 5.625V7.875H6V5.625C6 4.82935 6.31607 4.06629 6.87868 3.50368C7.44129 2.94107 8.20435 2.625 9 2.625ZM13.5 9.375H4.5C4.30109 9.375 4.11032 9.45402 3.96967 9.59467C3.82902 9.73532 3.75 9.92609 3.75 10.125V14.625C3.75 14.8239 3.82902 15.0147 3.96967 15.1553C4.11032 15.296 4.30109 15.375 4.5 15.375H13.5C13.6989 15.375 13.8897 15.296 14.0303 15.1553C14.171 15.0147 14.25 14.8239 14.25 14.625V10.125C14.25 9.92609 14.171 9.73532 14.0303 9.59467C13.8897 9.45402 13.6989 9.375 13.5 9.375Z" fill="white"/>
</svg>
