<svg width="20" height="20" viewBox="0 0 24 24" fill="none" xmlns="http://www.w3.org/2000/svg">
<path d="M5.99989 8.00025L11.9999 11.0002L17.9999 8.00025L11.9999 5.00025L5.99989 8.00025ZM12.4889 3.11625L20.4819 7.19225C20.9679 7.44025 21.1429 8.00225 20.8729 8.44925C20.7787 8.60281 20.6437 8.72711 20.4829 8.80825L12.4889 12.8842C12.3371 12.9604 12.1697 13.0001 11.9999 13.0001C11.8301 13.0001 11.6626 12.9604 11.5109 12.8842L3.51789 8.80825C3.03189 8.56025 2.85689 7.99825 3.12689 7.55125C3.22104 7.39769 3.35608 7.27339 3.51689 7.19225L11.5109 3.11625C11.8149 2.96125 12.1849 2.96125 12.4889 3.11625ZM12.4889 16.8822C12.3376 16.96 12.17 17.0005 11.9999 17.0005C11.8298 17.0005 11.6622 16.96 11.5109 16.8822L3.51789 12.7352C3.03189 12.4832 2.85689 11.9112 3.12689 11.4572C3.22139 11.3025 3.3562 11.1763 3.51689 11.0922C3.63353 11.0318 3.763 11.0002 3.89439 11.0002C4.02578 11.0002 4.15525 11.0318 4.27189 11.0922L11.5119 14.8472C11.8149 15.0052 12.1849 15.0052 12.4889 14.8472L19.7279 11.0922C19.8444 11.0319 19.9737 11.0004 20.1049 11.0004C20.2361 11.0004 20.3654 11.0319 20.4819 11.0922C20.9679 11.3442 21.1429 11.9162 20.8729 12.3702C20.7784 12.525 20.6436 12.6512 20.4829 12.7352L12.4889 16.8822ZM12.4889 20.8822C12.3376 20.96 12.17 21.0005 11.9999 21.0005C11.8298 21.0005 11.6622 20.96 11.5109 20.8822L3.51789 16.7353C3.03189 16.4833 2.85689 15.9112 3.12689 15.4572C3.22139 15.3025 3.3562 15.1763 3.51689 15.0922C3.63353 15.0318 3.763 15.0002 3.89439 15.0002C4.02578 15.0002 4.15525 15.0318 4.27189 15.0922L11.5119 18.8472C11.8149 19.0052 12.1849 19.0052 12.4889 18.8472L19.7279 15.0922C19.8444 15.0319 19.9737 15.0004 20.1049 15.0004C20.2361 15.0004 20.3654 15.0319 20.4819 15.0922C20.9679 15.3442 21.1429 15.9163 20.8729 16.3703C20.7784 16.525 20.6436 16.6512 20.4829 16.7353L12.4889 20.8822Z" fill="white"/>
</svg>
