<svg width="24" height="24" viewBox="0 0 24 24" fill="none" xmlns="http://www.w3.org/2000/svg">
<path d="M7 21C5.61667 21 4.43767 20.5123 3.463 19.537C2.48833 18.5617 2.00067 17.3827 2 16C2 14.7833 2.37933 13.721 3.138 12.813C3.89667 11.905 4.85067 11.334 6 11.1V13.175C5.41667 13.375 4.93767 13.7333 4.563 14.25C4.18833 14.7667 4.00067 15.35 4 16C4 16.8333 4.29167 17.5417 4.875 18.125C5.45833 18.7083 6.16667 19 7 19C7.83333 19 8.54167 18.7083 9.125 18.125C9.70833 17.5417 10 16.8333 10 16V15H15.875C16.0083 14.85 16.171 14.729 16.363 14.637C16.555 14.545 16.7673 14.4993 17 14.5C17.4167 14.5 17.771 14.646 18.063 14.938C18.355 15.23 18.5007 15.584 18.5 16C18.4993 16.416 18.3537 16.7703 18.063 17.063C17.7723 17.3557 17.418 17.5013 17 17.5C16.7667 17.5 16.554 17.4543 16.362 17.363C16.17 17.2717 16.008 17.1507 15.876 17H11.9C11.6667 18.15 11.0957 19.1043 10.187 19.863C9.27833 20.6217 8.216 21.0007 7 21ZM17 21C16.0667 21 15.221 20.771 14.463 20.313C13.705 19.855 13.109 19.2507 12.675 18.5H15.35C15.5833 18.6667 15.8417 18.7917 16.125 18.875C16.4083 18.9583 16.7 19 17 19C17.8333 19 18.5417 18.7083 19.125 18.125C19.7083 17.5417 20 16.8333 20 16C20 15.1667 19.7083 14.4583 19.125 13.875C18.5417 13.2917 17.8333 13 17 13C16.6667 13 16.3583 13.046 16.075 13.138C15.7917 13.23 15.525 13.3673 15.275 13.55L12.225 8.475C11.875 8.40833 11.5833 8.24167 11.35 7.975C11.1167 7.70833 11 7.38333 11 7C11 6.58333 11.146 6.22933 11.438 5.938C11.73 5.64667 12.084 5.50067 12.5 5.5C12.916 5.49933 13.2703 5.64533 13.563 5.938C13.8557 6.23067 14.0013 6.58467 14 7V7.213C14 7.271 13.9833 7.34167 13.95 7.425L16.125 11.075C16.2583 11.0417 16.4 11.021 16.55 11.013C16.7 11.005 16.85 11.0007 17 11C18.3833 11 19.5627 11.4877 20.538 12.463C21.5133 13.4383 22.0007 14.6173 22 16C21.9993 17.3827 21.5117 18.562 20.537 19.538C19.5623 20.514 18.3833 21.0013 17 21ZM7 17.5C6.58333 17.5 6.22933 17.3543 5.938 17.063C5.64667 16.7717 5.50067 16.4173 5.5 16C5.5 15.6333 5.61667 15.3167 5.85 15.05C6.08333 14.7833 6.36667 14.6083 6.7 14.525L9.05 10.625C8.56667 10.175 8.18733 9.63767 7.912 9.013C7.63667 8.38833 7.49933 7.71733 7.5 7C7.5 5.61667 7.98767 4.43767 8.963 3.463C9.93833 2.48833 11.1173 2.00067 12.5 2C13.8827 1.99933 15.062 2.487 16.038 3.463C17.014 4.439 17.5013 5.618 17.5 7H15.5C15.5 6.16667 15.2083 5.45833 14.625 4.875C14.0417 4.29167 13.3333 4 12.5 4C11.6667 4 10.9583 4.29167 10.375 4.875C9.79167 5.45833 9.5 6.16667 9.5 7C9.5 7.71667 9.71667 8.346 10.15 8.888C10.5833 9.43 11.1333 9.77567 11.8 9.925L8.425 15.55C8.45833 15.6333 8.47933 15.7083 8.488 15.775C8.49667 15.8417 8.50067 15.9167 8.5 16C8.5 16.4167 8.35433 16.771 8.063 17.063C7.77167 17.355 7.41733 17.5007 7 17.5Z" fill="white"/>
</svg>
