<svg width="24" height="24" viewBox="0 0 24 24" fill="none" xmlns="http://www.w3.org/2000/svg">
<path d="M17.03 13.3486C17.571 13.0996 17.842 12.9756 17.921 12.8516C18 12.7286 18 12.5316 18 12.1396V11.8616C18 11.4686 18 11.2726 17.921 11.1496C17.842 11.0256 17.571 10.9016 17.03 10.6526C16.227 10.2826 15.711 9.47559 15.739 8.62959C15.76 7.98359 15.771 7.66059 15.7 7.53859C15.63 7.41559 15.46 7.32259 15.122 7.13659L14.799 6.95959C14.469 6.77959 14.305 6.68959 14.165 6.69659C14.025 6.70259 13.785 6.86459 13.308 7.18859C12.9207 7.44637 12.4658 7.58389 12.0005 7.58389C11.5352 7.58389 11.0803 7.44637 10.693 7.18859C10.215 6.86459 9.977 6.70259 9.836 6.69559C9.696 6.68959 9.531 6.77959 9.202 6.95959L8.879 7.13659C8.54 7.32259 8.371 7.41559 8.301 7.53759C8.231 7.66059 8.241 7.98359 8.261 8.62959C8.289 9.47559 7.773 10.2836 6.971 10.6526C6.429 10.9016 6.158 11.0256 6.079 11.1496C6 11.2726 6 11.4696 6 11.8616V12.1396C6 12.5326 6 12.7296 6.079 12.8516C6.158 12.9756 6.429 13.0996 6.97 13.3486C7.773 13.7186 8.289 14.5256 8.261 15.3716C8.24 16.0176 8.229 16.3406 8.3 16.4626C8.37 16.5856 8.54 16.6786 8.879 16.8646L9.201 17.0416C9.531 17.2216 9.695 17.3116 9.835 17.3056C9.975 17.2996 10.215 17.1366 10.692 16.8126C11.0795 16.5544 11.5348 16.4166 12.0005 16.4166C12.4662 16.4166 12.9215 16.5544 13.309 16.8126C13.786 17.1366 14.025 17.2986 14.166 17.3046C14.306 17.3116 14.471 17.2216 14.8 17.0416L15.122 16.8646C15.462 16.6786 15.632 16.5856 15.702 16.4626C15.772 16.3406 15.761 16.0176 15.74 15.3716C15.712 14.5256 16.227 13.7176 17.03 13.3486Z" stroke="white" stroke-width="1.5" stroke-linecap="round"/>
<path d="M12 13.75C12.9665 13.75 13.75 12.9665 13.75 12C13.75 11.0335 12.9665 10.25 12 10.25C11.0335 10.25 10.25 11.0335 10.25 12C10.25 12.9665 11.0335 13.75 12 13.75Z" stroke="white" stroke-width="1.5"/>
<path d="M19 2.00001V4.85901C17.1326 3.02384 14.6182 1.9969 12 2.00001C6.477 2.00001 2 6.47701 2 12C1.9991 13.3764 2.28235 14.7381 2.832 16M5 22V19.141C6.86742 20.9762 9.38178 22.0031 12 22C17.523 22 22 17.523 22 12C22.0009 10.6236 21.7177 9.26187 21.168 8.00001" stroke="white" stroke-width="1.5" stroke-linecap="round" stroke-linejoin="round"/>
</svg>
