<svg width="18" height="18" viewBox="0 0 18 18" fill="none" xmlns="http://www.w3.org/2000/svg">
<path d="M6.75 2.625V15.375M2.25 7.05C2.25 5.37 2.25 4.53 2.577 3.888C2.86462 3.32354 3.32354 2.86462 3.888 2.577C4.53 2.25 5.37 2.25 7.05 2.25H10.95C12.63 2.25 13.47 2.25 14.112 2.577C14.6765 2.86462 15.1354 3.32354 15.423 3.888C15.75 4.53 15.75 5.37 15.75 7.05V10.95C15.75 12.63 15.75 13.47 15.423 14.112C15.1354 14.6765 14.6765 15.1354 14.112 15.423C13.47 15.75 12.63 15.75 10.95 15.75H7.05C5.37 15.75 4.53 15.75 3.888 15.423C3.32354 15.1354 2.86462 14.6765 2.577 14.112C2.25 13.47 2.25 12.63 2.25 10.95V7.05Z" stroke="#E6E6E6" stroke-width="1.5" stroke-linecap="round" stroke-linejoin="round"/>
</svg>
