<svg width="18" height="18" viewBox="0 0 18 18" fill="none" xmlns="http://www.w3.org/2000/svg">
<path d="M11.25 15.75V9.75C11.25 9.55109 11.171 9.36032 11.0303 9.21967C10.8897 9.07902 10.6989 9 10.5 9H7.5C7.30109 9 7.11032 9.07902 6.96967 9.21967C6.82902 9.36032 6.75 9.55109 6.75 9.75V15.75" stroke="#E6E6E6" stroke-linecap="round" stroke-linejoin="round"/>
<path d="M2.25 7.50036C2.24995 7.28216 2.2975 7.06658 2.38934 6.86865C2.48118 6.67072 2.6151 6.49521 2.78175 6.35436L8.03175 1.85436C8.30249 1.62554 8.64552 1.5 9 1.5C9.35448 1.5 9.69751 1.62554 9.96825 1.85436L15.2183 6.35436C15.3849 6.49521 15.5188 6.67072 15.6107 6.86865C15.7025 7.06658 15.7501 7.28216 15.75 7.50036V14.2504C15.75 14.6482 15.592 15.0297 15.3107 15.311C15.0294 15.5923 14.6478 15.7504 14.25 15.7504H3.75C3.35218 15.7504 2.97064 15.5923 2.68934 15.311C2.40804 15.0297 2.25 14.6482 2.25 14.2504V7.50036Z" stroke="#E6E6E6" stroke-linecap="round" stroke-linejoin="round"/>
</svg>
