<svg width="17" height="17" viewBox="0 0 17 17" fill="none" xmlns="http://www.w3.org/2000/svg">
<path d="M8.5 10.625C9.6736 10.625 10.625 9.6736 10.625 8.5C10.625 7.32639 9.6736 6.375 8.5 6.375C7.32639 6.375 6.375 7.32639 6.375 8.5C6.375 9.6736 7.32639 10.625 8.5 10.625Z" stroke="#E6E6E6"/>
<path d="M9.75016 1.52368C9.4902 1.41602 9.16012 1.41602 8.49995 1.41602C7.83979 1.41602 7.5097 1.41602 7.24974 1.52368C7.07775 1.59488 6.92147 1.69927 6.78984 1.8309C6.65821 1.96253 6.55382 2.11881 6.48262 2.29081C6.41745 2.44877 6.39124 2.63364 6.38133 2.9021C6.37672 3.09613 6.32296 3.28582 6.2251 3.45343C6.12723 3.62104 5.98846 3.76109 5.82174 3.86047C5.65232 3.95523 5.46162 4.00545 5.2675 4.00644C5.07337 4.00743 4.88217 3.95916 4.71179 3.86614C4.47379 3.74006 4.30166 3.67064 4.13095 3.64797C3.7586 3.59901 3.38203 3.6999 3.08404 3.92847C2.86162 4.1006 2.69587 4.38606 2.36579 4.95768C2.0357 5.52931 1.86995 5.81477 1.83383 6.09456C1.80949 6.27904 1.82173 6.46652 1.86986 6.64628C1.91799 6.82603 2.00106 6.99454 2.11433 7.14218C2.21916 7.27818 2.36579 7.39222 2.59316 7.53531C2.9282 7.74568 3.14354 8.1041 3.14354 8.49935C3.14354 8.8946 2.9282 9.25302 2.59316 9.46268C2.36579 9.60647 2.21845 9.72052 2.11433 9.85652C2.00106 10.0042 1.91799 10.1727 1.86986 10.3524C1.82173 10.5322 1.80949 10.7197 1.83383 10.9041C1.87066 11.1832 2.0357 11.4694 2.36508 12.041C2.69587 12.6126 2.86091 12.8981 3.08404 13.0702C3.23168 13.1835 3.40019 13.2666 3.57994 13.3147C3.7597 13.3628 3.94717 13.3751 4.13166 13.3507C4.30166 13.3281 4.47379 13.2586 4.71179 13.1326C4.88217 13.0395 5.07337 12.9913 5.2675 12.9923C5.46162 12.9932 5.65232 13.0435 5.82174 13.1382C6.16387 13.3366 6.36716 13.7014 6.38133 14.0966C6.39124 14.3658 6.41675 14.5499 6.48262 14.7079C6.55382 14.8799 6.65821 15.0362 6.78984 15.1678C6.92147 15.2994 7.07775 15.4038 7.24974 15.475C7.5097 15.5827 7.83979 15.5827 8.49995 15.5827C9.16012 15.5827 9.4902 15.5827 9.75016 15.475C9.92216 15.4038 10.0784 15.2994 10.2101 15.1678C10.3417 15.0362 10.4461 14.8799 10.5173 14.7079C10.5825 14.5499 10.6087 14.3658 10.6186 14.0966C10.6327 13.7014 10.836 13.3359 11.1782 13.1382C11.3476 13.0435 11.5383 12.9932 11.7324 12.9923C11.9265 12.9913 12.1177 13.0395 12.2881 13.1326C12.5261 13.2586 12.6982 13.3281 12.8682 13.3507C13.0527 13.3751 13.2402 13.3628 13.42 13.3147C13.5997 13.2666 13.7682 13.1835 13.9159 13.0702C14.139 12.8988 14.304 12.6126 14.6341 12.041C14.9642 11.4694 15.13 11.1839 15.1661 10.9041C15.1904 10.7197 15.1782 10.5322 15.13 10.3524C15.0819 10.1727 14.9988 10.0042 14.8856 9.85652C14.7807 9.72052 14.6341 9.60648 14.4067 9.46339C14.2409 9.36238 14.1035 9.22096 14.0072 9.05235C13.911 8.88375 13.8591 8.69348 13.8564 8.49935C13.8564 8.1041 14.0717 7.74568 14.4067 7.53602C14.6341 7.39223 14.7815 7.27818 14.8856 7.14218C14.9988 6.99454 15.0819 6.82603 15.13 6.64628C15.1782 6.46652 15.1904 6.27904 15.1661 6.09456C15.1292 5.81547 14.9642 5.52931 14.6348 4.95768C14.304 4.38606 14.139 4.1006 13.9159 3.92847C13.7682 3.81521 13.5997 3.73213 13.42 3.684C13.2402 3.63588 13.0527 3.62363 12.8682 3.64797C12.6982 3.67064 12.5261 3.74006 12.2874 3.86614C12.1171 3.95903 11.926 4.00724 11.7321 4.00625C11.5381 4.00526 11.3475 3.9551 11.1782 3.86047C11.0115 3.76109 10.8727 3.62104 10.7748 3.45343C10.6769 3.28582 10.6232 3.09613 10.6186 2.9021C10.6087 2.63293 10.5832 2.44877 10.5173 2.29081C10.4461 2.11881 10.3417 1.96253 10.2101 1.8309C10.0784 1.69927 9.92216 1.59488 9.75016 1.52368Z" stroke="#E6E6E6"/>
</svg>
