<svg width="17" height="17" viewBox="0 0 17 17" fill="none" xmlns="http://www.w3.org/2000/svg">
<path d="M14.1667 2.125H2.83333C2.44213 2.125 2.125 2.44213 2.125 2.83333V6.375C2.125 6.7662 2.44213 7.08333 2.83333 7.08333H14.1667C14.5579 7.08333 14.875 6.7662 14.875 6.375V2.83333C14.875 2.44213 14.5579 2.125 14.1667 2.125Z" stroke="#E6E6E6" stroke-linecap="round" stroke-linejoin="round"/>
<path d="M7.79167 9.91602H2.83333C2.44213 9.91602 2.125 10.2331 2.125 10.6243V14.166C2.125 14.5572 2.44213 14.8743 2.83333 14.8743H7.79167C8.18287 14.8743 8.5 14.5572 8.5 14.166V10.6243C8.5 10.2331 8.18287 9.91602 7.79167 9.91602Z" stroke="#E6E6E6" stroke-linecap="round" stroke-linejoin="round"/>
<path d="M14.1667 9.91602H12.0417C11.6505 9.91602 11.3334 10.2331 11.3334 10.6243V14.166C11.3334 14.5572 11.6505 14.8743 12.0417 14.8743H14.1667C14.5579 14.8743 14.875 14.5572 14.875 14.166V10.6243C14.875 10.2331 14.5579 9.91602 14.1667 9.91602Z" stroke="#E6E6E6" stroke-linecap="round" stroke-linejoin="round"/>
</svg>
