<svg width="20" height="20" viewBox="0 0 20 20" fill="none" xmlns="http://www.w3.org/2000/svg">
<path d="M9.16669 16.6662H1.66669M15.8334 16.6662L10.2017 18.0737C10.0789 18.1043 9.95068 18.1066 9.82687 18.0803C9.70305 18.054 9.58685 17.9998 9.48709 17.9219C9.38733 17.844 9.30662 17.7444 9.25111 17.6306C9.19559 17.5168 9.16672 17.3919 9.16669 17.2653V3.80118C9.16685 3.548 9.2247 3.29735 9.33583 3.06986C9.44696 2.84237 9.60846 2.64319 9.80807 2.48744C10.0077 2.33169 10.2401 2.22346 10.4878 2.17098C10.7355 2.11849 10.9919 2.12312 11.2375 2.18451L14.5709 3.01785C14.9314 3.10797 15.2515 3.31603 15.4803 3.60896C15.709 3.90188 15.8333 4.26285 15.8334 4.63451V16.6662ZM15.8334 16.6662H18.3334M9.16669 3.33285H6.66669C6.22466 3.33285 5.80074 3.50844 5.48818 3.821C5.17561 4.13356 5.00002 4.55749 5.00002 4.99951V16.6662M11.6667 9.99951H11.675" stroke="white" stroke-width="2" stroke-linecap="round" stroke-linejoin="round"/>
</svg>
