<svg width="20" height="20" viewBox="0 0 20 20" fill="none" xmlns="http://www.w3.org/2000/svg">
<g clip-path="url(#clip0_576_898)">
<path fill-rule="evenodd" clip-rule="evenodd" d="M13.3333 7.49935C13.3333 8.3834 12.9821 9.23125 12.357 9.85637C11.7319 10.4815 10.884 10.8327 9.99996 10.8327C9.1159 10.8327 8.26806 10.4815 7.64294 9.85637C7.01782 9.23125 6.66663 8.3834 6.66663 7.49935C6.66663 6.61529 7.01782 5.76745 7.64294 5.14233C8.26806 4.5172 9.1159 4.16602 9.99996 4.16602C10.884 4.16602 11.7319 4.5172 12.357 5.14233C12.9821 5.76745 13.3333 6.61529 13.3333 7.49935ZM11.6666 7.49935C11.6666 7.94138 11.491 8.3653 11.1785 8.67786C10.8659 8.99042 10.442 9.16602 9.99996 9.16602C9.55793 9.16602 9.13401 8.99042 8.82145 8.67786C8.50889 8.3653 8.33329 7.94138 8.33329 7.49935C8.33329 7.05732 8.50889 6.6334 8.82145 6.32084C9.13401 6.00828 9.55793 5.83268 9.99996 5.83268C10.442 5.83268 10.8659 6.00828 11.1785 6.32084C11.491 6.6334 11.6666 7.05732 11.6666 7.49935Z" fill="white"/>
<path fill-rule="evenodd" clip-rule="evenodd" d="M9.99998 0.833008C4.93748 0.833008 0.833313 4.93717 0.833313 9.99967C0.833313 15.0622 4.93748 19.1663 9.99998 19.1663C15.0625 19.1663 19.1666 15.0622 19.1666 9.99967C19.1666 4.93717 15.0625 0.833008 9.99998 0.833008ZM2.49998 9.99967C2.49998 11.7413 3.09415 13.3447 4.08998 14.618C4.78951 13.6998 5.69177 12.9556 6.72635 12.4436C7.76092 11.9316 8.89981 11.6656 10.0541 11.6663C11.1936 11.665 12.3184 11.9239 13.3426 12.4233C14.3668 12.9227 15.2635 13.6494 15.9641 14.548C16.6862 13.601 17.1723 12.4957 17.3824 11.3235C17.5924 10.1513 17.5203 8.94595 17.1721 7.80716C16.8238 6.66837 16.2093 5.62888 15.3795 4.77471C14.5498 3.92053 13.5285 3.27622 12.4003 2.8951C11.2721 2.51397 10.0693 2.40698 8.89153 2.58299C7.71375 2.75899 6.5948 3.21292 5.62729 3.90722C4.65977 4.60152 3.87149 5.51623 3.32767 6.57567C2.78385 7.63511 2.50013 8.80881 2.49998 9.99967ZM9.99998 17.4997C8.27824 17.5025 6.60843 16.9101 5.27331 15.823C5.81065 15.0535 6.52597 14.4253 7.35838 13.9917C8.19078 13.5582 9.11561 13.3322 10.0541 13.333C10.981 13.3322 11.8946 13.5526 12.7191 13.9758C13.5437 14.399 14.2553 15.0128 14.795 15.7663C13.4495 16.8888 11.7522 17.5024 9.99998 17.4997Z" fill="white"/>
</g>
<defs>
<clipPath id="clip0_576_898">
<rect width="20" height="20" fill="white"/>
</clipPath>
</defs>
</svg>
