<svg width="5" height="9" viewBox="0 0 5 9" fill="none" xmlns="http://www.w3.org/2000/svg">
<path fill-rule="evenodd" clip-rule="evenodd" d="M0.253417 5.17317C0.0911464 4.99611 -1.19209e-07 4.75609 -1.19209e-07 4.50584C-1.19209e-07 4.25559 0.0911464 4.01557 0.253417 3.8385L3.52078 0.276457C3.68333 0.0993853 3.90378 -5.90064e-05 4.13361 2.62674e-08C4.36345 5.90589e-05 4.58385 0.0996165 4.74632 0.276771C4.9088 0.453926 5.00005 0.694166 5 0.944642C4.99995 1.19512 4.90859 1.43531 4.74604 1.61238L2.09102 4.50584L4.74604 7.39929C4.90396 7.57732 4.9914 7.81581 4.98954 8.06342C4.98767 8.31102 4.89664 8.54792 4.73606 8.72309C4.57547 8.89826 4.35818 8.99769 4.13098 8.99996C3.90378 9.00223 3.68486 8.90715 3.52135 8.73522L0.253417 5.17317Z" fill="#424242"/>
</svg>
