<svg width="5" height="9" viewBox="0 0 5 9" fill="none" xmlns="http://www.w3.org/2000/svg">
<path fill-rule="evenodd" clip-rule="evenodd" d="M4.74658 3.82683C4.90885 4.00389 5 4.24391 5 4.49416C5 4.74441 4.90885 4.98443 4.74658 5.1615L1.47922 8.72354C1.31667 8.90061 1.09622 9.00006 0.866389 9C0.636555 8.99994 0.416155 8.90038 0.253675 8.72323C0.0911957 8.54607 -5.41439e-05 8.30583 2.41028e-08 8.05536C5.41921e-05 7.80488 0.0914078 7.56469 0.253964 7.38762L2.90898 4.49416L0.253964 1.60071C0.0960415 1.42268 0.00859661 1.18419 0.0104631 0.936582C0.0123295 0.688977 0.103358 0.452077 0.263943 0.276906C0.424528 0.101735 0.64182 0.00230777 0.869018 3.99351e-05C1.09622 -0.0022279 1.31514 0.0928458 1.47865 0.264783L4.74658 3.82683Z" fill="#424242"/>
</svg>
