<svg width="18" height="18" viewBox="0 0 18 18" fill="none" xmlns="http://www.w3.org/2000/svg">
<path d="M8.1001 13.7246C8.1001 13.4262 8.21862 13.1401 8.4296 12.9291C8.64058 12.7181 8.92673 12.5996 9.2251 12.5996C9.52347 12.5996 9.80961 12.7181 10.0206 12.9291C10.2316 13.1401 10.3501 13.4262 10.3501 13.7246C10.3501 14.023 10.2316 14.3091 10.0206 14.5201C9.80961 14.7311 9.52347 14.8496 9.2251 14.8496C8.92673 14.8496 8.64058 14.7311 8.4296 14.5201C8.21862 14.3091 8.1001 14.023 8.1001 13.7246ZM8.1001 9.22461C8.1001 8.92624 8.21862 8.64009 8.4296 8.42911C8.64058 8.21814 8.92673 8.09961 9.2251 8.09961C9.52347 8.09961 9.80961 8.21814 10.0206 8.42911C10.2316 8.64009 10.3501 8.92624 10.3501 9.22461C10.3501 9.52298 10.2316 9.80913 10.0206 10.0201C9.80961 10.2311 9.52347 10.3496 9.2251 10.3496C8.92673 10.3496 8.64058 10.2311 8.4296 10.0201C8.21862 9.80913 8.1001 9.52298 8.1001 9.22461ZM8.1001 4.72461C8.1001 4.42624 8.21862 4.14009 8.4296 3.92911C8.64058 3.71814 8.92673 3.59961 9.2251 3.59961C9.52347 3.59961 9.80961 3.71814 10.0206 3.92911C10.2316 4.14009 10.3501 4.42624 10.3501 4.72461C10.3501 5.02298 10.2316 5.30913 10.0206 5.5201C9.80961 5.73108 9.52347 5.84961 9.2251 5.84961C8.92673 5.84961 8.64058 5.73108 8.4296 5.5201C8.21862 5.30913 8.1001 5.02298 8.1001 4.72461Z" fill="#F5F5F5"/>
</svg>
