<svg width="24" height="24" viewBox="0 0 24 24" fill="none" xmlns="http://www.w3.org/2000/svg">
<rect x="0.5" y="0.5" width="23" height="23" rx="4.5" fill="#2B2B2B"/>
<rect x="0.5" y="0.5" width="23" height="23" rx="4.5" stroke="#424242"/>
<path d="M10.875 16.5C10.875 16.2016 10.9935 15.9155 11.2045 15.7045C11.4155 15.4935 11.7016 15.375 12 15.375C12.2984 15.375 12.5845 15.4935 12.7955 15.7045C13.0065 15.9155 13.125 16.2016 13.125 16.5C13.125 16.7984 13.0065 17.0845 12.7955 17.2955C12.5845 17.5065 12.2984 17.625 12 17.625C11.7016 17.625 11.4155 17.5065 11.2045 17.2955C10.9935 17.0845 10.875 16.7984 10.875 16.5ZM10.875 12C10.875 11.7016 10.9935 11.4155 11.2045 11.2045C11.4155 10.9935 11.7016 10.875 12 10.875C12.2984 10.875 12.5845 10.9935 12.7955 11.2045C13.0065 11.4155 13.125 11.7016 13.125 12C13.125 12.2984 13.0065 12.5845 12.7955 12.7955C12.5845 13.0065 12.2984 13.125 12 13.125C11.7016 13.125 11.4155 13.0065 11.2045 12.7955C10.9935 12.5845 10.875 12.2984 10.875 12ZM10.875 7.5C10.875 7.20163 10.9935 6.91548 11.2045 6.7045C11.4155 6.49353 11.7016 6.375 12 6.375C12.2984 6.375 12.5845 6.49353 12.7955 6.7045C13.0065 6.91548 13.125 7.20163 13.125 7.5C13.125 7.79837 13.0065 8.08452 12.7955 8.2955C12.5845 8.50647 12.2984 8.625 12 8.625C11.7016 8.625 11.4155 8.50647 11.2045 8.2955C10.9935 8.08452 10.875 7.79837 10.875 7.5Z" fill="#F5F5F5"/>
</svg>
