<svg width="24" height="24" viewBox="0 0 24 24" fill="none" xmlns="http://www.w3.org/2000/svg">
<path d="M8.08586 18.6103L14.0819 4.60626C14.1826 4.37235 14.3689 4.18572 14.6026 4.08443C14.8362 3.98314 15.0998 3.97484 15.3394 4.06121C15.579 4.14759 15.7766 4.32213 15.8919 4.54922C16.0072 4.77631 16.0315 5.03885 15.9599 5.28326L15.9199 5.39326L9.92386 19.3973C9.82308 19.6312 9.63685 19.8178 9.40316 19.9191C9.16948 20.0204 8.90595 20.0287 8.66635 19.9423C8.42675 19.8559 8.22914 19.6814 8.11383 19.4543C7.99853 19.2272 7.97422 18.9647 8.04586 18.7203L8.08586 18.6103ZM2.29286 11.2923L6.29286 7.29226C6.47282 7.11291 6.7143 7.00878 6.96825 7.00103C7.22219 6.99327 7.46957 7.08247 7.66014 7.2505C7.85071 7.41854 7.97017 7.65281 7.99426 7.90573C8.01835 8.15865 7.94527 8.41126 7.78986 8.61226L7.70686 8.70625L4.41386 11.9993L7.70686 15.2923C7.88812 15.4718 7.99389 15.7138 8.00254 15.9688C8.01119 16.2238 7.92206 16.4724 7.7534 16.6638C7.58473 16.8552 7.34928 16.975 7.09524 16.9985C6.8412 17.022 6.58778 16.9475 6.38686 16.7903L6.29286 16.7063L2.29286 12.7063C2.12068 12.5341 2.01725 12.305 2.00197 12.0619C1.98669 11.8189 2.06061 11.5787 2.20986 11.3863L2.29286 11.2923ZM16.2929 7.29126C16.4651 7.11908 16.6942 7.01565 16.9372 7.00037C17.1802 6.98509 17.4205 7.059 17.6129 7.20826L17.7059 7.29126L21.7069 11.2923C21.879 11.4644 21.9825 11.6935 21.9977 11.9366C22.013 12.1796 21.9391 12.4199 21.7899 12.6123L21.7069 12.7073L17.7059 16.7023C17.5259 16.8816 17.2844 16.9857 17.0305 16.9935C16.7765 17.0012 16.5291 16.912 16.3386 16.744C16.148 16.576 16.0286 16.3417 16.0045 16.0888C15.9804 15.8359 16.0534 15.5832 16.2089 15.3823L16.2929 15.2873L19.5849 11.9993L16.2919 8.70526C16.1044 8.51773 15.9991 8.26342 15.9991 7.99826C15.9991 7.73309 16.1054 7.47878 16.2929 7.29126Z" fill="white"/>
</svg>
