<svg width="24" height="24" viewBox="0 0 24 24" fill="none" xmlns="http://www.w3.org/2000/svg">
<path d="M21.5 12C21.5 14.5196 20.4991 16.9359 18.7175 18.7175C16.9359 20.4991 14.5196 21.5 12 21.5C10.372 21.5 8.84 21.09 7.5 20.369C5.632 19.362 4.375 20.298 3.266 20.466C3.18308 20.4779 3.09851 20.4699 3.01925 20.4428C2.93998 20.4157 2.86827 20.3702 2.81 20.31C2.72301 20.2176 2.66543 20.1015 2.6446 19.9763C2.62377 19.8511 2.64062 19.7226 2.693 19.607C3.129 18.582 3.528 16.638 2.983 15C2.66208 14.0324 2.499 13.0194 2.5 12C2.5 9.48044 3.50089 7.06408 5.28249 5.28249C7.06409 3.50089 9.48045 2.5 12 2.5C14.5196 2.5 16.9359 3.50089 18.7175 5.28249C20.4991 7.06408 21.5 9.48044 21.5 12Z" stroke="white" stroke-width="1.5" stroke-linecap="round" stroke-linejoin="round"/>
<path d="M12 7V12L15 14" stroke="white" stroke-width="1.5" stroke-linecap="round" stroke-linejoin="round"/>
</svg>
